# This file uses centimeters as units for non-parametric coordinates.

mtllib Uth_Knot_MshShape.mtl
g skinCluster17Set tweakSet17
v 2.132240 110.909721 -15.945601
v 1.070070 113.781845 -14.636301
v 3.352420 110.828270 -13.151400
v 1.662470 115.429268 -13.511500
v 3.224460 110.899963 -14.371300
v 1.932740 109.748863 -14.419600
v 1.780050 115.535957 -15.224300
v 2.531010 113.640724 -14.429300
v 1.501240 111.045731 -12.707600
v 1.674130 110.138313 -13.410500
v 1.627990 113.995186 -12.830300
v 3.379440 114.282967 -13.353300
v 2.477770 111.420715 -12.546300
v 2.636850 113.552094 -12.486400
v 2.837010 111.342987 -15.009000
v 2.233200 113.684769 -14.383600
v -1.951510 111.339890 -15.929700
v -1.719770 114.070526 -16.089300
v -2.234750 111.770515 -13.799000
v -1.646490 115.131210 -13.590200
v -2.438280 111.768303 -14.541900
v -1.598510 110.796120 -14.763400
v -1.598680 115.572960 -15.315701
v -2.878650 113.959641 -14.908000
v -1.483590 111.439674 -13.251100
v -1.348710 110.879410 -13.898700
v -1.475700 113.582062 -13.283900
v -2.451440 113.756889 -13.797300
v 0.102894 114.116661 -16.127100
v 0.109771 111.545212 -15.793300
v -0.069723 111.146835 -12.930597
v -0.020729 113.805229 -13.031100
v -0.102621 115.714142 -14.961000
v 0.263486 110.063026 -15.044401
v -0.153875 110.428581 -13.380500
v -0.033186 115.494400 -13.254500
v -2.001070 111.915672 -13.417800
v -2.137450 113.106895 -13.348800
v -2.411420 112.034187 -15.224600
v -2.843650 113.516350 -15.757599
v -1.627560 113.757744 -14.865002
v -2.544540 111.801971 -15.722300
v -1.426790 115.317055 -14.680000
v -3.378830 112.998230 -15.429600
v -2.751220 110.099304 -16.059500
v -4.299000 110.685120 -16.149401
v -2.968100 108.724632 -16.253401
v -4.494820 108.908218 -16.294201
v -3.068849 106.935593 -16.838799
v -4.637809 107.090149 -16.983601
v -3.128649 104.357689 -17.621901
v -4.911649 104.593109 -17.863199
v -3.405059 100.919617 -18.340599
v -5.356439 101.508362 -18.783001
v -3.108528 96.250633 -18.044201
v -6.289378 97.710281 -18.629101
v -1.643110 113.808853 -14.380499
v -2.538270 111.816055 -15.435099
v -1.428760 115.328148 -14.194800
v -3.454600 113.120331 -15.077700
v -2.735460 110.153412 -15.783399
v -4.220719 110.736267 -15.806599
v -3.057549 108.819740 -15.998800
v -4.618199 109.017311 -16.053400
v -3.235160 107.004745 -16.626499
v -4.812879 107.159271 -16.783899
v -3.223209 104.444923 -17.338499
v -5.025729 104.662277 -17.593000
v -3.409879 100.992859 -17.984501
v -5.440558 101.528465 -18.479900
v -3.132098 96.514259 -17.802601
v -6.190478 97.680717 -18.437700
v 1.470810 112.481430 -15.167200
v 2.645490 111.897079 -15.362999
v 1.165640 113.897774 -15.091300
v 3.151320 113.119278 -15.483900
v 3.339340 110.512314 -16.070801
v 4.553450 111.316277 -16.188101
v 4.029600 108.461891 -17.053499
v 5.662400 108.665382 -17.073000
v 4.865331 105.609207 -17.796902
v 6.617910 105.592331 -17.858900
v 5.160720 101.811974 -18.167299
v 7.174410 101.099304 -18.314800
v 4.392001 96.941238 -17.295401
v 6.743771 96.043159 -17.586500
v 2.291041 91.588852 -16.372700
v 6.396260 90.338272 -16.331301
v 1.449040 112.459541 -14.700400
v 2.642970 111.847198 -14.866700
v 1.151020 113.934868 -14.611600
v 3.189830 113.153358 -15.098000
v 3.299630 110.516487 -15.542899
v 4.644380 111.383400 -15.745700
v 3.865630 108.520149 -16.542500
v 5.795660 108.723503 -16.623800
v 4.533391 105.706741 -17.274599
v 6.536481 105.646645 -17.417101
v 5.054141 101.909286 -17.775499
v 7.199441 101.112396 -17.963301
v 4.148911 97.114799 -16.961500
v 6.730180 96.101746 -17.276699
v 1.972561 91.772926 -15.852601
v 6.287150 90.436714 -15.901001
vt 0.120804 0.488347
vt 0.049399 0.503725
vt 0.099129 0.507945
vt 0.065570 0.500578
vt 0.101072 0.517707
vt 0.106027 0.491873
vt 0.058670 0.500590
vt 0.079186 0.524456
vt 0.091958 0.495076
vt 0.099144 0.493677
vt 0.074389 0.499992
vt 0.071903 0.514596
vt 0.091525 0.501706
vt 0.078772 0.505780
vt 0.117986 0.501254
vt 0.054812 0.513266
vt 0.097155 0.459276
vt 0.047171 0.482471
vt 0.082011 0.470570
vt 0.063524 0.484821
vt 0.080486 0.464571
vt 0.094252 0.469904
vt 0.055640 0.485805
vt 0.062299 0.465341
vt 0.085093 0.477300
vt 0.090501 0.475359
vt 0.071488 0.481457
vt 0.066364 0.474148
vt 0.046862 0.493368
vt 0.112211 0.469887
vt 0.088895 0.485805
vt 0.073464 0.490164
vt 0.056982 0.492943
vt 0.104140 0.480472
vt 0.093608 0.483800
vt 0.065195 0.492534
vt 0.081181 0.474441
vt 0.073029 0.476270
vt 0.087633 0.459025
vt 0.046291 0.471898
vt 0.098538 0.524264
vt 0.033751 0.526817
vt 0.023489 0.519750
vt 0.026841 0.497603
vt 0.109993 0.504699
vt 0.057144 0.514675
vt 0.078472 0.526817
vt 0.085012 0.464754
vt 0.025299 0.477833
vt 0.031339 0.469742
vt 0.077353 0.459579
vt 0.055737 0.471261
vt 0.064342 0.457909
vt 0.012570 0.907505
vt 0.020294 0.906238
vt 0.017698 0.910597
vt 0.008435 0.909910
vt 0.026874 0.905079
vt 0.026160 0.910572
vt 0.031883 0.905168
vt 0.032081 0.910771
vt 0.038659 0.904534
vt 0.039097 0.910304
vt 0.048493 0.903211
vt 0.049012 0.910005
vt 0.061390 0.901816
vt 0.060888 0.909111
vt 0.076984 0.897747
vt 0.074061 0.909603
vt 0.017166 0.911639
vt 0.020014 0.916809
vt 0.009943 0.915074
vt 0.009960 0.911300
vt 0.026525 0.917170
vt 0.025703 0.911650
vt 0.031457 0.916899
vt 0.031572 0.911646
vt 0.038579 0.917184
vt 0.038707 0.911223
vt 0.048517 0.917956
vt 0.048561 0.911025
vt 0.061920 0.918767
vt 0.060777 0.910212
vt 0.079014 0.919131
vt 0.073918 0.910328
vt 0.020318 0.917920
vt 0.010651 0.916933
vt 0.008284 0.915390
vt 0.026913 0.918132
vt 0.031979 0.917792
vt 0.038978 0.918142
vt 0.048996 0.919013
vt 0.062250 0.920106
vt 0.079953 0.920106
vt 0.080119 0.918739
vt 0.011842 0.885558
vt 0.009479 0.881711
vt 0.015234 0.881874
vt 0.016081 0.885549
vt 0.022043 0.881998
vt 0.021848 0.886686
vt 0.031752 0.882527
vt 0.030079 0.888070
vt 0.043147 0.883147
vt 0.041254 0.889165
vt 0.059040 0.884543
vt 0.055502 0.891400
vt 0.077007 0.887177
vt 0.073463 0.895559
vt 0.096632 0.889402
vt 0.091939 0.903516
vt 0.015025 0.880869
vt 0.010691 0.880500
vt 0.009919 0.876301
vt 0.015620 0.876288
vt 0.021618 0.875364
vt 0.021656 0.880650
vt 0.030093 0.874197
vt 0.031387 0.880980
vt 0.041451 0.874402
vt 0.042742 0.881603
vt 0.056924 0.874820
vt 0.059173 0.883279
vt 0.076848 0.875212
vt 0.077152 0.886092
vt 0.100820 0.874789
vt 0.095957 0.887799
vt 0.015893 0.874360
vt 0.010243 0.874350
vt 0.008284 0.876660
vt 0.022257 0.873515
vt 0.030984 0.872400
vt 0.042455 0.872262
vt 0.057304 0.873235
vt 0.076998 0.873412
vt 0.100575 0.872262
vt 0.102111 0.876685
vn 0.869794 0.396573 0.293578
vn 0.763116 -0.474567 0.438680
vn 0.852558 -0.322510 -0.411257
vn 0.735709 0.141516 -0.662348
vn 0.342574 0.779636 0.524224
vn 0.497438 0.449448 -0.741992
vn 0.114666 0.862966 -0.492078
vn -0.099193 0.729099 0.677182
vn 0.693841 0.048344 -0.718504
vn 0.280560 -0.922805 -0.264040
vn 0.455351 -0.162863 -0.875289
vn 0.467765 0.110576 -0.876909
vn 0.369695 0.100349 -0.923718
vn 0.208129 -0.222282 0.952509
vn -0.099350 -0.297609 0.949504
vn 0.087164 -0.832177 0.547617
vn 0.220442 0.209417 0.952654
vn -0.054929 0.228944 0.971889
vn 0.085486 -0.339005 -0.936893
vn -0.217594 -0.923216 -0.316743
vn -0.134723 0.125395 0.982917
vn 0.250001 0.203760 -0.946563
vn -0.223230 -0.297945 0.928115
vn -0.288052 -0.819012 0.496232
vn -0.833440 0.151092 0.531553
vn -0.977406 0.210917 -0.013822
vn -0.899189 -0.423424 0.110320
vn -0.822468 -0.402545 0.401875
vn -0.483084 0.559427 0.673551
vn -0.495590 0.809191 -0.315597
vn -0.865884 -0.359065 -0.348307
vn -0.430882 -0.453069 -0.780429
vn -0.565338 -0.815210 -0.125804
vn -0.836766 0.044627 -0.545739
vn -0.315000 0.223880 -0.922308
vn -0.623357 -0.275758 0.731699
vn -0.542402 -0.737407 0.402531
vn -0.386020 -0.332814 0.860363
vn -0.529751 0.030010 0.847622
vn -0.259288 0.092330 0.961377
vn 0.911554 -0.155092 -0.380809
vn 0.755799 -0.036234 -0.653800
vn -0.450262 0.503178 -0.737615
vn 0.347886 0.533776 -0.770752
vn 0.761409 -0.002100 -0.648268
vn -0.598562 0.297029 -0.743974
vn 0.847034 -0.016093 -0.531295
vn -0.479664 0.282227 -0.830825
vn 0.906291 0.110477 -0.407960
vn -0.361821 0.339438 -0.868256
vn 0.869760 0.103040 -0.482598
vn -0.407019 0.308729 -0.859664
vn 0.804552 0.037922 -0.592670
vn -0.539828 0.214196 -0.814067
vn 0.637029 -0.652206 -0.410878
vn -0.846080 -0.426282 -0.320052
vn -0.749419 0.212470 0.627078
vn 0.583228 -0.386174 0.714643
vn 0.781335 -0.393505 0.484427
vn 0.020379 0.359935 0.932755
vn 0.632596 -0.246341 0.734260
vn -0.755514 0.059797 0.652398
vn 0.496745 -0.288083 0.818690
vn -0.843829 0.005661 0.536582
vn 0.418202 -0.297464 0.858267
vn -0.927188 -0.023764 0.373841
vn 0.478552 -0.240679 0.844430
vn -0.901465 0.005426 0.432817
vn 0.587485 -0.076349 0.805625
vn -0.816214 0.098560 0.569281
vn 0.225700 -0.400225 0.888189
vn -0.710314 -0.228041 0.665922
vn -0.724094 -0.486622 -0.488760
vn -0.526406 0.469136 -0.709090
vn 0.190435 0.618269 -0.762547
vn -0.630411 -0.375557 -0.679367
vn 0.356205 0.530029 -0.769538
vn -0.748543 -0.043837 -0.661636
vn 0.523862 0.420366 -0.740851
vn -0.634308 0.064201 -0.770410
vn 0.659352 0.263842 -0.704019
vn -0.556526 0.045728 -0.829571
vn 0.683520 -0.002755 -0.729927
vn -0.569950 -0.005375 -0.821662
vn 0.684630 -0.170002 -0.708788
vn -0.536003 -0.010954 -0.844145
vn 0.412830 -0.789166 -0.454740
vn -0.565977 -0.446663 -0.692937
vn 0.602308 0.540016 0.587884
vn -0.346838 0.624481 0.699804
vn -0.668472 -0.575326 0.471323
vn -0.327244 -0.591728 0.736729
vn -0.558995 -0.460769 0.689360
vn 0.812070 0.251757 0.526461
vn -0.713614 -0.392467 0.580280
vn 0.797830 0.075635 0.598119
vn -0.804674 -0.254195 0.536549
vn 0.730103 0.021598 0.682996
vn -0.822939 0.019359 0.567800
vn 0.735030 0.016299 0.677838
vn -0.790580 0.336034 0.511922
vn 0.727085 0.064993 0.683464
vn -0.778830 -0.453596 0.433214
vn 0.472922 -0.455728 0.754094
s 1
g Uth_Knot_Msh Uth_Body_Grp SkinnedMesh Mesh CharacterRoot
usemtl ChrUtah_Mesh:Body_SG
f 12/12/1 3/3/2 5/5/3 8/8/4
f 4/4/5 7/7/6 33/33/7 36/36/8
f 15/15/9 5/45/3 6/6/10 1/1/11
f 16/16/12 2/2/13 7/7/6 8/46/4
f 13/13/14 9/9/15 10/10/16 3/3/2
f 14/14/17 12/12/1 4/4/5 11/11/18
f 1/43/11 2/2/13 16/16/12 15/42/9
f 30/30/19 1/1/11 6/6/10 34/34/20
f 11/11/18 9/9/15 13/13/14 14/14/17
f 32/32/21 11/11/18 4/4/5 36/36/8
f 3/3/2 10/10/16 6/6/10 5/45/3
f 4/4/5 12/12/1 8/46/4 7/7/6
f 30/44/19 29/29/22 2/2/13 1/43/11
f 32/32/21 31/31/23 9/9/15 11/11/18
f 35/35/24 34/34/20 6/6/10 10/10/16
f 29/29/22 33/33/7 7/7/6 2/2/13
f 31/31/23 35/35/24 10/10/16 9/9/15
f 14/14/17 13/13/14 3/3/2 12/12/1
f 15/41/9 16/47/12 8/8/4 5/5/3
f 28/28/25 24/24/26 21/21/27 19/19/28
f 20/20/29 36/36/8 33/33/7 23/23/30
f 39/39/31 17/17/32 22/22/33 21/48/27
f 40/40/34 24/52/26 23/23/30 18/18/35
f 37/37/36 19/19/28 26/26/37 25/25/38
f 38/38/39 27/27/40 20/20/29 28/28/25
f 17/49/32 39/50/31 40/40/34 18/18/35
f 30/30/19 34/34/20 22/22/33 17/17/32
f 27/27/40 38/38/39 37/37/36 25/25/38
f 32/32/21 36/36/8 20/20/29 27/27/40
f 19/19/28 21/48/27 22/22/33 26/26/37
f 20/20/29 23/23/30 24/52/26 28/28/25
f 30/44/19 17/49/32 18/18/35 29/29/22
f 32/32/21 27/27/40 25/25/38 31/31/23
f 35/35/24 26/26/37 22/22/33 34/34/20
f 29/29/22 18/18/35 23/23/30 33/33/7
f 31/31/23 25/25/38 26/26/37 35/35/24
f 38/38/39 28/28/25 19/19/28 37/37/36
f 39/51/31 21/21/27 24/24/26 40/53/34
s 2
f 41/54/41 42/55/42 44/56/43 43/57/44
f 44/56/43 42/55/42 45/58/45 46/59/46
f 46/59/46 45/58/45 47/60/47 48/61/48
f 48/61/48 47/60/47 49/62/49 50/63/50
f 50/63/50 49/62/49 51/64/51 52/65/52
f 52/65/52 51/64/51 53/66/53 54/67/54
f 54/67/54 53/66/53 55/68/55 56/69/56
f 60/70/57 58/71/58 57/72/59 59/73/60
f 61/74/61 58/71/58 60/70/57 62/75/62
f 63/76/63 61/74/61 62/75/62 64/77/64
f 65/78/65 63/76/63 64/77/64 66/79/66
f 67/80/67 65/78/65 66/79/66 68/81/68
f 69/82/69 67/80/67 68/81/68 70/83/70
f 71/84/71 69/82/69 70/83/70 72/85/72
f 42/86/42 41/87/41 57/72/59 58/71/58
f 43/57/44 44/56/43 60/70/57 59/73/60
f 41/88/41 43/57/44 59/73/60 57/72/59
f 45/89/45 42/86/42 58/71/58 61/74/61
f 44/56/43 46/59/46 62/75/62 60/70/57
f 47/90/47 45/89/45 61/74/61 63/76/63
f 46/59/46 48/61/48 64/77/64 62/75/62
f 49/91/49 47/90/47 63/76/63 65/78/65
f 48/61/48 50/63/50 66/79/66 64/77/64
f 51/92/51 49/91/49 65/78/65 67/80/67
f 50/63/50 52/65/52 68/81/68 66/79/66
f 53/93/53 51/92/51 67/80/67 69/82/69
f 52/65/52 54/67/54 70/83/70 68/81/68
f 55/94/55 53/93/53 69/82/69 71/84/71
f 56/69/56 55/95/55 71/84/71 72/85/72
f 54/67/54 56/69/56 72/85/72 70/83/70
s 3
f 73/96/73 75/97/74 76/98/75 74/99/76
f 76/98/75 78/100/77 77/101/78 74/99/76
f 78/100/77 80/102/79 79/103/80 77/101/78
f 80/102/79 82/104/81 81/105/82 79/103/80
f 82/104/81 84/106/83 83/107/84 81/105/82
f 84/106/83 86/108/85 85/109/86 83/107/84
f 86/108/85 88/110/87 87/111/88 85/109/86
f 92/112/89 91/113/90 89/114/91 90/115/92
f 93/116/93 94/117/94 92/112/89 90/115/92
f 95/118/95 96/119/96 94/117/94 93/116/93
f 97/120/97 98/121/98 96/119/96 95/118/95
f 99/122/99 100/123/100 98/121/98 97/120/97
f 101/124/101 102/125/102 100/123/100 99/122/99
f 103/126/103 104/127/104 102/125/102 101/124/101
f 74/128/76 90/115/92 89/114/91 73/129/73
f 75/97/74 91/113/90 92/112/89 76/98/75
f 73/130/73 89/114/91 91/113/90 75/97/74
f 77/131/78 93/116/93 90/115/92 74/128/76
f 76/98/75 92/112/89 94/117/94 78/100/77
f 79/132/80 95/118/95 93/116/93 77/131/78
f 78/100/77 94/117/94 96/119/96 80/102/79
f 81/133/82 97/120/97 95/118/95 79/132/80
f 80/102/79 96/119/96 98/121/98 82/104/81
f 83/134/84 99/122/99 97/120/97 81/133/82
f 82/104/81 98/121/98 100/123/100 84/106/83
f 85/135/86 101/124/101 99/122/99 83/134/84
f 84/106/83 100/123/100 102/125/102 86/108/85
f 87/136/88 103/126/103 101/124/101 85/135/86
f 88/110/87 104/127/104 103/126/103 87/137/88
f 86/108/85 102/125/102 104/127/104 88/110/87
