# This file uses centimeters as units for non-parametric coordinates.

mtllib Uth_Eyelash_Lo_MshShape.mtl
g skinCluster5Set tweakSet5
v 4.570507 172.076202 11.397407
v 5.053456 172.187744 10.943289
v 5.222651 172.295334 10.704981
v 4.038523 172.025436 11.694999
v 3.385238 172.104996 11.818449
v 2.439931 172.345367 11.707711
v 1.888144 172.549118 11.487247
v 2.038111 172.634491 11.208602
v 2.586610 172.514938 11.461200
v 3.397860 172.371643 11.627901
v 3.963621 172.318008 11.481400
v 4.415768 172.322830 11.257797
v 4.783940 172.388474 10.925799
v 4.979940 172.472427 10.697800
v 1.960001 172.587570 11.401861
v 2.500252 172.427994 11.649097
v 3.361509 172.247070 11.814018
v 4.005567 172.173767 11.685666
v 4.488054 172.198807 11.410547
v 4.978589 172.321579 11.004064
v 5.165609 172.382706 10.741005
v 2.008904 172.617905 11.317780
v 2.547580 172.482559 11.586070
v 3.361054 172.339630 11.719112
v 3.992457 172.287827 11.612612
v 4.448472 172.286423 11.351410
v 4.866583 172.367630 10.993102
v 5.064301 172.433044 10.727682
v 2.977810 172.446182 11.574200
v 2.970157 172.396484 11.693384
v 2.955741 172.302002 11.781271
v 2.953048 172.198196 11.810485
vt 0.267942 0.436801
vt 0.089524 0.277258
vt 0.013771 0.158206
vt 0.518439 0.522266
vt 0.718077 0.450818
vt 0.900088 0.276224
vt 0.956648 0.164290
vt 0.866118 0.077214
vt 0.793272 0.180255
vt 0.649810 0.288581
vt 0.513488 0.342864
vt 0.303481 0.274555
vt 0.214822 0.173715
vt 0.134396 0.080738
vt 0.925898 0.130268
vt 0.866933 0.247707
vt 0.700980 0.386306
vt 0.523280 0.455183
vt 0.303633 0.383757
vt 0.142830 0.236681
vt 0.053058 0.133258
vt 0.896885 0.099879
vt 0.829145 0.217415
vt 0.676712 0.327928
vt 0.517277 0.397290
vt 0.309187 0.328963
vt 0.183690 0.212723
vt 0.095740 0.101937
vt 0.725270 0.242384
vt 0.755740 0.289918
vt 0.785677 0.335687
vt 0.810287 0.377332
vn 0.559216 0.514430 0.650107
vn 0.480511 0.427869 0.765531
vn 0.553469 0.179230 0.813357
vn 0.702964 0.180495 0.687941
vn 0.768654 0.191219 0.610415
vn 0.598259 0.560643 0.572509
vn 0.330249 0.384040 0.862235
vn 0.339954 0.138794 0.930144
vn 0.110901 0.406639 0.906833
vn 0.088054 0.110064 0.990016
vn -0.057631 0.295493 0.953605
vn -0.022417 0.517664 0.855290
vn -0.031658 0.716973 0.696382
vn -0.053297 0.624306 0.779360
vn -0.008419 0.822174 0.569174
vn -0.015185 0.772094 0.635327
vn 0.046714 0.891111 0.451374
vn 0.056708 0.926740 0.371399
vn 0.058191 0.836654 0.544632
vn 0.228278 0.820041 0.524806
vn 0.128857 0.825980 0.548774
vn 0.248003 0.837823 0.486361
vn 0.221026 0.873320 0.434119
vn 0.223602 0.885097 0.408173
vn 0.101260 0.953378 0.284282
vn 0.113686 0.965310 0.235059
vn 0.100085 0.928887 0.356584
vn 0.135239 0.956076 0.260058
vn 0.126580 0.936771 0.326248
vn 0.101500 0.958032 0.268092
vn 0.094949 0.939304 0.329685
vn 0.116039 0.921145 0.371520
s 1
g Uth_Eyelash_Lo_Msh Uth_Eyelash_Lt_Grp Head_Grp SkinnedMesh Mesh CharacterRoot
usemtl ChrUtah_Mesh:Eyelashes_SG
f 20/20/1 19/19/2 1/1/3 2/2/4
f 3/3/5 21/21/6 20/20/1 2/2/4
f 1/1/3 19/19/2 18/18/7 4/4/8
f 4/4/8 18/18/7 17/17/9 5/5/10
f 32/32/11 31/31/12 16/16/13 6/6/14
f 6/6/14 16/16/13 15/15/15 7/7/16
f 23/23/17 22/22/18 15/15/15 16/16/13
f 30/30/19 23/23/17 16/16/13 31/31/12
f 25/25/20 24/24/21 17/17/9 18/18/7
f 26/26/22 25/25/20 18/18/7 19/19/2
f 20/20/1 27/27/23 26/26/22 19/19/2
f 28/28/24 27/27/23 20/20/1 21/21/6
f 9/9/25 8/8/26 22/22/18 23/23/17
f 29/29/27 9/9/25 23/23/17 30/30/19
f 11/11/28 10/10/29 24/24/21 25/25/20
f 12/12/30 11/11/28 25/25/20 26/26/22
f 27/27/23 13/13/31 12/12/30 26/26/22
f 14/14/32 13/13/31 27/27/23 28/28/24
f 10/10/29 29/29/27 30/30/19 24/24/21
f 24/24/21 30/30/19 31/31/12 17/17/9
f 5/5/10 17/17/9 31/31/12 32/32/11
