# This file uses centimeters as units for non-parametric coordinates.

mtllib REyelashShapeDeformed.mtl
g skinCluster8Set tweakSet8
v -2.129553 165.037369 7.851538
v -4.753253 165.039124 7.216129
v -4.364770 165.237549 7.743176
v -4.556698 165.239990 7.963393
v -4.960694 165.016830 7.399557
v -4.706316 165.144119 7.797505
v -4.490892 165.172134 7.587394
v -4.296350 165.336655 8.150952
v -4.140151 165.285828 7.891744
v -1.932611 165.012085 8.116202
v -2.160286 165.111389 8.234324
v -2.286559 165.091385 7.853796
v -2.471717 165.223114 7.866949
v -2.410008 165.280258 8.319684
v -2.901673 165.456253 8.415773
v -2.868223 165.423141 7.982775
v -3.381739 165.478485 8.442882
v -3.307149 165.428116 8.054196
v -3.819936 165.358795 8.007477
v -3.916285 165.432709 8.323709
v -4.646801 165.080200 7.375803
v -4.844838 165.099564 7.585641
v -5.038486 165.125427 7.434442
v -4.935399 165.201080 7.641494
v -4.785026 165.264557 7.899641
v -4.617445 165.337219 8.109738
v -4.358770 165.433807 8.283848
v -3.956102 165.515457 8.433311
v -3.404146 165.560333 8.554542
v -2.903841 165.502243 8.532342
v -2.391165 165.323654 8.427666
v -2.124629 165.167084 8.330933
v -1.913128 165.034775 8.187696
v -1.982733 164.975632 7.982761
v -2.175911 165.082031 8.078444
v -2.438378 165.235016 8.136093
v -2.892530 165.437393 8.231141
v -3.349309 165.422089 8.279989
v -3.873588 165.353378 8.173820
v -4.222973 165.270584 8.017277
v -4.459704 165.174774 7.832188
v -4.593775 165.083282 7.684951
v -4.707296 165.055466 7.446836
v -4.805065 164.994843 7.276827
v -2.669715 165.345505 7.926105
v -2.647921 165.374298 8.177490
v -2.649693 165.402115 8.376098
v -2.653721 165.447632 8.492585
v -3.084134 165.433533 8.023652
v -3.153245 165.454437 8.268488
v -3.175009 165.486679 8.420995
v -3.178425 165.548904 8.520048
v -3.636092 165.556183 8.511862
v -3.605559 165.473907 8.401161
v -3.569216 165.382141 8.250921
v -3.546068 165.397995 8.061272
v -4.399748 164.856705 7.245067
v -2.226944 164.910309 7.665341
v -2.194381 164.902008 7.844128
v -2.508284 164.903320 7.943071
v -2.611447 164.888718 7.671502
v -2.935605 164.826050 8.030577
v -2.992435 164.836945 7.791028
v -4.513064 164.845352 7.540542
v -4.332120 164.772079 7.681168
v -4.267835 164.805862 7.373464
v -4.130426 164.783020 7.484307
v -4.166930 164.741074 7.805610
v -3.959681 164.714020 7.903727
v -3.943541 164.761230 7.594339
v -3.514221 164.784546 7.743724
v -3.308939 164.739044 8.047330
v -2.186817 164.854248 7.907722
v -2.493670 164.863983 8.004451
v -2.927109 164.775650 8.117383
v -3.321724 164.671631 8.119253
v -3.967673 164.639862 8.008368
v -4.198653 164.679001 7.910691
v -4.382394 164.715805 7.741464
v -4.575939 164.791718 7.637065
v -4.473631 164.871872 7.434748
v -4.300866 164.808548 7.580511
v -4.150018 164.781342 7.694968
v -3.947104 164.769379 7.795166
v -3.298843 164.801468 7.911693
v -2.935687 164.848755 7.876559
v -2.520392 164.915741 7.793139
v -2.221125 164.921890 7.681723
v -3.649871 164.617676 8.093595
v -3.654481 164.704651 8.009622
v -3.655256 164.771027 7.877383
v -3.739403 164.773056 7.680777
v -3.779072 164.766449 7.836721
v -3.796105 164.703964 7.957919
v -3.798135 164.623749 8.053723
v -3.490480 164.634445 8.105988
v -3.488344 164.720367 8.033789
v -3.472628 164.774399 7.894476
v -3.262817 164.793839 7.771793
v -3.118465 164.819641 7.892202
v -3.125014 164.781647 8.042016
v -3.125968 164.716125 8.118330
v -2.764203 164.857468 7.724957
v -2.725955 164.880325 7.832257
v -2.719701 164.862976 7.989793
v -2.710025 164.824677 8.060705
v -2.484469 164.921600 7.640020
v -2.355652 164.938843 7.733239
v -2.335400 164.922287 7.890110
v -2.323861 164.868134 7.950631
vt 0.408033 0.016154
vt 0.408278 0.030325
vt 0.429186 0.030250
vt 0.428993 0.016089
vt 0.429940 0.079887
vt 0.409095 0.079952
vt 0.409351 0.096159
vt 0.430213 0.096014
vt 0.409610 0.112848
vt 0.409797 0.125334
vt 0.430733 0.125415
vt 0.430505 0.112947
vt 0.391449 0.123923
vt 0.391384 0.111760
vt 0.391508 0.135225
vt 0.409973 0.137188
vt 0.430957 0.137115
vt 0.391183 0.079927
vt 0.391285 0.095486
vt 0.408851 0.064784
vt 0.408965 0.071864
vt 0.429810 0.071822
vt 0.429697 0.064763
vt 0.391130 0.072147
vt 0.391083 0.065338
vt 0.390829 0.032025
vt 0.390707 0.018344
vt 0.407839 0.005387
vt 0.390595 0.005480
vt 0.428867 0.005349
vt 0.408395 0.037344
vt 0.390883 0.038831
vt 0.390948 0.046950
vt 0.408535 0.045714
vt 0.429285 0.037274
vt 0.429406 0.045652
vt 0.408696 0.055444
vt 0.391016 0.056332
vt 0.429555 0.055403
vt 0.410100 0.145910
vt 0.431130 0.145868
vt 0.391561 0.146011
vt 0.445113 0.016016
vt 0.445040 0.005285
vt 0.445210 0.030175
vt 0.445258 0.037204
vt 0.445314 0.045587
vt 0.445381 0.055274
vt 0.445445 0.064574
vt 0.445494 0.071684
vt 0.445549 0.079808
vt 0.445660 0.095922
vt 0.445778 0.112933
vt 0.445864 0.125470
vt 0.445944 0.136942
vt 0.446006 0.146077
vt 0.408033 0.016154
vt 0.408278 0.030325
vt 0.429186 0.030250
vt 0.428993 0.016089
vt 0.430049 0.086253
vt 0.409195 0.086357
vt 0.409351 0.096159
vt 0.430213 0.096014
vt 0.430474 0.110771
vt 0.409575 0.110802
vt 0.409797 0.125334
vt 0.430733 0.125415
vt 0.391370 0.110141
vt 0.391453 0.124470
vt 0.391561 0.146011
vt 0.410100 0.145910
vt 0.409964 0.136782
vt 0.391513 0.136455
vt 0.431130 0.145868
vt 0.430954 0.136795
vt 0.391224 0.086138
vt 0.391286 0.095703
vt 0.429733 0.066725
vt 0.429585 0.057396
vt 0.408728 0.057434
vt 0.408880 0.066775
vt 0.391029 0.058035
vt 0.391093 0.067092
vt 0.390826 0.031505
vt 0.390703 0.017666
vt 0.407839 0.005387
vt 0.390595 0.005480
vt 0.428867 0.005349
vt 0.390946 0.046604
vt 0.408535 0.045714
vt 0.429406 0.045652
vt 0.445113 0.016016
vt 0.445040 0.005285
vt 0.445210 0.030175
vt 0.445314 0.045587
vt 0.445376 0.054526
vt 0.445493 0.071622
vt 0.445593 0.086168
vt 0.445660 0.095922
vt 0.445763 0.110752
vt 0.445864 0.125470
vt 0.446006 0.146077
vt 0.445943 0.136937
vt 0.390990 0.052687
vt 0.408637 0.051951
vt 0.429501 0.051902
vt 0.391162 0.076785
vt 0.409044 0.076774
vt 0.429889 0.076710
vn -0.326455 -0.869128 0.371543
vn -0.403635 -0.854959 0.325768
vn -0.489032 -0.853465 0.180127
vn -0.421099 -0.885664 0.195643
vn 0.084076 -0.965685 0.245733
vn -0.027439 -0.846647 0.531447
vn -0.026682 -0.859368 0.510661
vn 0.148852 -0.962098 0.228495
vn -0.066443 -0.854851 0.514603
vn -0.222350 -0.862525 0.454545
vn 0.261625 -0.951975 0.159047
vn 0.255515 -0.942266 0.216443
vn -0.376086 -0.765219 0.522494
vn -0.157255 -0.816263 0.555865
vn -0.511315 -0.688616 0.514164
vn -0.288418 -0.860336 0.420282
vn 0.246420 -0.961565 0.121118
vn -0.047825 -0.809381 0.585334
vn -0.063075 -0.823166 0.564287
vn 0.029807 -0.881184 0.471833
vn -0.033917 -0.850830 0.524345
vn 0.070906 -0.972209 0.223118
vn 0.098942 -0.976837 0.189739
vn -0.066380 -0.808982 0.584073
vn -0.011702 -0.818135 0.574907
vn -0.338587 -0.839627 0.424718
vn -0.261298 -0.840609 0.474447
vn -0.244720 -0.895136 0.372618
vn -0.181301 -0.867178 0.463824
vn -0.349692 -0.917546 0.189276
vn -0.291129 -0.920017 0.262322
vn -0.240938 -0.899676 0.364049
vn -0.136977 -0.905932 0.400654
vn -0.141226 -0.953302 0.266966
vn -0.370508 -0.919792 0.129250
vn -0.154597 -0.982905 0.099990
vn -0.004953 -0.929933 0.367697
vn -0.031509 -0.860003 0.509315
vn 0.022921 -0.990219 0.137629
vn -0.232903 -0.851077 0.470557
vn 0.298608 -0.942109 0.152525
vn -0.518155 -0.653479 0.551798
vn -0.453250 -0.882228 0.127430
vn -0.391082 -0.914885 0.100202
vn -0.514013 -0.846698 0.137452
vn -0.402567 -0.909716 0.101764
vn -0.166480 -0.983411 0.072026
vn 0.023957 -0.998021 0.058144
vn 0.123756 -0.992229 0.012906
vn 0.138088 -0.989958 -0.030245
vn 0.169440 -0.985540 -0.000662
vn 0.277020 -0.960743 -0.015254
vn 0.457124 -0.887166 -0.063050
vn 0.540889 -0.838053 -0.071461
vn 0.502368 -0.862715 -0.057878
vn 0.491908 -0.869884 -0.036439
vn -0.062473 0.901639 0.427953
vn -0.131523 0.891651 0.433198
vn 0.019772 0.982730 0.183986
vn 0.128768 0.975052 0.180813
vn -0.134521 0.985339 0.104932
vn -0.170191 0.879767 0.443898
vn -0.144458 0.923721 0.354785
vn -0.153666 0.987019 0.046704
vn -0.160778 0.986959 0.007936
vn -0.098924 0.943388 0.316596
vn -0.039954 0.940401 0.337714
vn -0.161367 0.986548 0.026165
vn -0.048874 0.863107 0.502650
vn 0.046040 0.833251 0.550974
vn 0.280117 0.762663 0.582993
vn 0.231047 0.908127 0.349174
vn 0.126625 0.925823 0.356114
vn 0.204988 0.783698 0.586343
vn 0.108211 0.987722 -0.112679
vn -0.017386 0.999339 -0.031915
vn -0.177285 0.769718 0.613274
vn -0.128138 0.834248 0.536294
vn -0.116201 0.964513 0.237092
vn -0.092013 0.967718 0.234641
vn -0.156042 0.806815 0.569825
vn -0.143476 0.811128 0.566997
vn -0.173516 0.689876 0.702825
vn -0.156548 0.672976 0.722908
vn -0.175672 0.844473 0.505969
vn -0.138977 0.840964 0.522939
vn 0.034674 0.895109 0.444498
vn -0.033936 0.829749 0.557105
vn 0.212920 0.959327 0.185354
vn -0.113167 0.817114 0.565259
vn -0.105312 0.863950 0.492443
vn -0.031578 0.977358 0.209223
vn 0.238020 0.970792 0.030142
vn 0.316651 0.947583 0.042649
vn 0.124894 0.992164 0.003453
vn 0.035236 0.999341 -0.008696
vn -0.038323 0.998949 0.025154
vn -0.091105 0.995358 0.031025
vn -0.109679 0.992776 -0.048642
vn -0.150563 0.986365 -0.066451
vn -0.174946 0.979383 -0.101005
vn -0.198495 0.978743 -0.051604
vn 0.047823 0.950021 -0.308502
vn -0.072769 0.984294 -0.160842
vn -0.146091 0.826862 0.543099
vn -0.158304 0.754489 0.636935
vn -0.085240 0.968796 0.232740
vn -0.162171 0.713772 0.681344
vn -0.155576 0.836817 0.524913
vn -0.130004 0.973691 0.187149
s 1
g Msh:REyelash Msh:headMesh MshRef Skl:SkinnedMesh Skl:Mesh Skl:CharacterRoot SklRef
usemtl Msh:lambert2SG
f 11/1/1 14/2/2 36/3/3 35/4/4
f 39/5/5 20/6/6 8/7/7 40/8/8
f 4/9/9 6/10/10 42/11/11 41/12/12
f 25/13/13 6/10/10 4/9/9 26/14/14
f 24/15/15 22/16/16 6/10/10 25/13/13
f 42/11/11 6/10/10 22/16/16 43/17/17
f 8/7/7 20/6/6 28/18/18 27/19/19
f 26/14/14 4/9/9 8/7/7 27/19/19
f 40/8/8 8/7/7 4/9/9 41/12/12
f 17/20/20 54/21/21 55/22/22 38/23/23
f 53/24/24 54/21/21 17/20/20 29/25/25
f 31/26/26 14/2/2 11/1/1 32/27/27
f 32/27/27 11/1/1 10/28/28 33/29/29
f 10/28/28 11/1/1 35/4/4 34/30/30
f 47/31/31 48/32/32 30/33/33 15/34/34
f 46/35/35 47/31/31 15/34/34 37/36/36
f 51/37/37 52/38/38 29/25/25 17/20/20
f 50/39/39 51/37/37 17/20/20 38/23/23
f 43/17/17 22/16/16 5/40/40 44/41/41
f 23/42/42 5/40/40 22/16/16 24/15/15
f 34/30/30 35/4/4 12/43/43 1/44/44
f 36/3/3 13/45/45 12/43/43 35/4/4
f 45/46/46 46/35/35 37/36/36 16/47/47
f 49/48/48 50/39/39 38/23/23 18/49/49
f 55/22/22 56/50/50 18/49/49 38/23/23
f 19/51/51 39/5/5 40/8/8 9/52/52
f 9/52/52 40/8/8 41/12/12 3/53/53
f 42/11/11 7/54/54 3/53/53 41/12/12
f 7/54/54 42/11/11 43/17/17 21/55/55
f 21/55/55 43/17/17 44/41/41 2/56/56
f 13/45/45 36/3/3 46/35/35 45/46/46
f 36/3/3 14/2/2 47/31/31 46/35/35
f 14/2/2 31/26/26 48/32/32 47/31/31
f 16/47/47 37/36/36 50/39/39 49/48/48
f 37/36/36 15/34/34 51/37/37 50/39/39
f 15/34/34 30/33/33 52/38/38 51/37/37
f 28/18/18 20/6/6 54/21/21 53/24/24
f 55/22/22 54/21/21 20/6/6 39/5/5
f 39/5/5 19/51/51 56/50/50 55/22/22
s 2
f 65/57/57 68/58/58 83/59/59 82/60/60
f 100/61/61 101/62/62 62/63/63 86/64/64
f 104/65/65 105/66/66 60/67/67 87/68/68
f 105/66/66 106/69/69 74/70/70 60/67/67
f 73/71/71 59/72/72 109/73/73 110/74/74
f 59/72/72 88/75/75 108/76/76 109/73/73
f 62/63/63 101/62/62 102/77/77 75/78/78
f 98/79/79 91/80/80 90/81/81 97/82/82
f 90/81/81 89/83/83 96/84/84 97/82/82
f 78/85/85 68/58/58 65/57/57 79/86/86
f 79/86/86 65/57/57 64/87/87 80/88/88
f 64/87/87 65/57/57 82/60/60 81/89/89
f 68/58/58 78/85/85 77/90/90 69/91/91
f 83/59/59 68/58/58 69/91/91 84/92/92
f 81/89/89 82/60/60 66/93/93 57/94/94
f 83/59/59 67/95/95 66/93/93 82/60/60
f 67/95/95 83/59/59 84/92/92 70/96/96
f 92/97/97 91/80/80 98/79/79 71/98/98
f 99/99/99 100/61/61 86/64/64 63/100/100
f 103/101/101 104/65/65 87/68/68 61/102/102
f 108/76/76 88/75/75 58/103/103 107/104/104
f 94/106/105 95/105/106 89/83/83 90/81/81
f 93/107/107 94/106/105 90/81/81 91/80/80
f 92/97/97 93/107/107 91/80/80
f 70/96/96 84/92/92 93/107/107 92/97/97
f 84/92/92 69/91/91 94/106/105 93/107/107
f 69/91/91 77/90/90 95/105/106 94/106/105
f 97/82/82 96/84/84 76/108/108 72/109/109
f 85/110/110 98/79/79 97/82/82 72/109/109
f 71/98/98 98/79/79 85/110/110
f 71/98/98 85/110/110 100/61/61 99/99/99
f 85/110/110 72/109/109 101/62/62 100/61/61
f 102/77/77 101/62/62 72/109/109 76/108/108
f 63/100/100 86/64/64 104/65/65 103/101/101
f 86/64/64 62/63/63 105/66/66 104/65/65
f 62/63/63 75/78/78 106/69/69 105/66/66
f 87/68/68 108/76/76 107/104/104 61/102/102
f 109/73/73 108/76/76 87/68/68 60/67/67
f 110/74/74 109/73/73 60/67/67 74/70/70
