# This file uses centimeters as units for non-parametric coordinates.

mtllib TongueShapeDeformed.mtl
g skinCluster11Set tweakSet11
v 1.753394 156.234695 3.729248
v -1.753394 156.234680 3.718544
v 0.000000 157.506744 5.760514
v 0.000000 156.418671 5.762040
v 1.617391 157.347961 5.760477
v 0.000000 157.091492 3.009308
v 1.801230 156.965790 3.350370
v 0.000000 156.736694 2.736610
v 1.407656 157.063766 3.215792
v 1.392956 156.730347 2.944959
v 1.783111 156.663025 3.099427
v 0.000000 157.389618 3.885996
v 0.000000 157.496292 4.902493
v 1.807860 157.233887 4.035136
v 1.412684 157.316635 3.985246
v 1.259174 157.467667 5.760410
v 1.358452 157.444534 4.902452
v 1.740506 157.326050 4.902452
v 0.000000 156.415894 4.190442
v 1.558020 156.546417 3.990865
v 2.016861 156.837814 3.606610
v 2.007546 156.587036 3.441406
v 1.595257 156.472198 3.739898
v 0.763160 156.458298 4.189855
v 0.794748 156.427032 3.714007
v 0.000000 156.414413 3.737624
v 1.348601 156.595779 5.760986
v 1.511699 156.581329 4.285243
v 2.018006 156.877533 4.102935
v 1.819762 156.929871 5.760505
v 1.947534 156.915100 4.902452
v 1.436470 156.595398 4.902408
v 0.000000 156.430328 4.540348
v 0.711431 156.470139 4.508387
v 0.617028 156.471222 5.761858
v 0.647916 156.474960 4.902408
v 0.000000 156.431168 4.902366
v 0.000000 157.443130 7.443972
v 1.283589 157.284790 7.443976
v 0.000000 157.486343 6.472113
v 0.000000 157.477448 7.026362
v 1.499498 157.345001 6.472093
v 1.176652 157.458542 6.472086
v 0.987825 157.367645 7.443980
v 1.071793 157.419830 7.026359
v 1.386722 157.332123 7.026364
v 0.000000 157.321991 8.122858
v 0.000000 157.168625 8.450681
v 1.151367 157.208542 7.857773
v 0.878911 157.271591 7.994273
v 0.688811 157.135544 8.312289
v 0.921216 157.096268 8.203712
v 0.000000 156.457550 7.444051
v 1.135301 156.569580 7.443977
v 1.295175 156.591370 6.472146
v 1.688966 156.938507 6.472093
v 1.437407 156.912582 7.443967
v 1.565348 156.932663 7.026355
v 1.209968 156.585800 7.026394
v 0.000000 156.426407 6.472344
v 0.625077 156.475067 6.472261
v 0.565972 156.493164 7.443985
v 0.604453 156.495804 7.026457
v 0.000000 156.451889 7.026514
v 1.038858 156.568436 7.857437
v 1.281822 156.895004 7.806423
v 1.017104 156.863998 8.166960
v 0.870876 156.574814 8.194393
v 0.000000 156.469147 8.173267
v 0.000000 156.506241 8.418727
v 0.774889 156.841492 8.339587
v 0.000000 156.832642 8.552055
v 0.597749 156.837265 8.410627
v 0.603605 156.547348 8.266102
v 0.569426 156.507217 7.986211
v -1.617391 157.348953 5.760483
v -1.801230 156.966141 3.335890
v -1.407656 157.021622 3.192286
v -1.392956 156.691376 2.927685
v -1.783111 156.663040 3.085490
v -1.807862 157.234756 4.029274
v -1.412684 157.317719 3.978544
v -1.259174 157.467911 5.760416
v -1.358452 157.445496 4.902493
v -1.740506 157.327194 4.902452
v -1.558020 156.548874 3.893967
v -2.016859 156.838165 3.593782
v -2.007548 156.587051 3.428361
v -1.595257 156.472519 3.728058
v -0.763160 156.458893 4.181026
v -0.794748 156.427567 3.704393
v -1.348601 156.596313 5.760996
v -1.511699 156.582108 4.281443
v -2.018007 156.878357 4.098073
v -1.819762 156.931244 5.760511
v -1.947534 156.916382 4.902452
v -1.436470 156.596146 4.902408
v -0.711431 156.470398 4.506829
v -0.617028 156.470901 5.761869
v -0.647916 156.474716 4.902408
v -1.283588 157.287216 7.443978
v -1.499498 157.346619 6.472096
v -1.176654 157.457153 6.472088
v -0.987825 157.365875 7.443981
v -1.071793 157.417587 7.026360
v -1.386722 157.333450 7.026368
v -1.151366 157.209915 7.871209
v -0.878911 157.271423 7.989680
v -0.688811 157.135544 8.312286
v -0.921216 157.096268 8.203712
v -1.135303 156.574020 7.443980
v -1.295175 156.591843 6.472149
v -1.688966 156.939758 6.472096
v -1.437407 156.918518 7.443972
v -1.565348 156.936646 7.026360
v -1.209968 156.586578 7.026397
v -0.625077 156.474899 6.472263
v -0.565971 156.494797 7.443985
v -0.604453 156.496216 7.026458
v -1.038858 156.570831 7.873036
v -1.281822 156.898132 7.830863
v -1.017104 156.858154 8.183368
v -0.870876 156.567841 8.209560
v -0.774889 156.838287 8.348239
v -0.597752 156.837265 8.410626
v -0.603605 156.542130 8.275892
v -0.569426 156.507584 7.992876
v 1.907903 156.242294 3.359648
v -1.907899 156.242203 3.347455
v 1.371125 156.227005 2.727767
v 0.000000 156.228500 2.518124
v 1.756609 156.234421 2.897706
v -1.371125 156.226944 2.718660
v -1.756609 156.234131 2.886262
vt 0.428554 0.166369
vt 0.428545 0.159062
vt 0.435259 0.159054
vt 0.435268 0.166361
vt 0.428592 0.197749
vt 0.428584 0.190651
vt 0.435297 0.190643
vt 0.435306 0.197741
vt 0.445271 0.197729
vt 0.445262 0.190631
vt 0.447819 0.190628
vt 0.447828 0.197726
vt 0.447807 0.216703
vt 0.445250 0.216706
vt 0.450315 0.197723
vt 0.450294 0.216700
vt 0.450306 0.190625
vt 0.435286 0.216719
vt 0.428572 0.216727
vt 0.440988 0.216712
vt 0.441008 0.197734
vt 0.440999 0.190636
vt 0.445224 0.159042
vt 0.447781 0.159039
vt 0.447790 0.166346
vt 0.445233 0.166349
vt 0.447805 0.178965
vt 0.445248 0.178968
vt 0.445241 0.173416
vt 0.447798 0.173413
vt 0.450292 0.178962
vt 0.450294 0.180598
vt 0.428569 0.178989
vt 0.428563 0.173437
vt 0.435276 0.173428
vt 0.435283 0.178981
vt 0.440978 0.173421
vt 0.440985 0.178974
vt 0.440961 0.159047
vt 0.440970 0.166354
vt 0.404196 0.197779
vt 0.404188 0.190681
vt 0.412986 0.190670
vt 0.412995 0.197768
vt 0.412975 0.216746
vt 0.404176 0.216756
vt 0.420277 0.216737
vt 0.420297 0.197760
vt 0.420289 0.190661
vt 0.397032 0.216765
vt 0.397053 0.197788
vt 0.389017 0.216775
vt 0.389187 0.197797
vt 0.397044 0.190690
vt 0.389178 0.190699
vt 0.404148 0.159092
vt 0.412948 0.159081
vt 0.412957 0.166388
vt 0.404158 0.166399
vt 0.404173 0.179018
vt 0.404166 0.173466
vt 0.412965 0.173456
vt 0.412972 0.179008
vt 0.420275 0.178999
vt 0.420268 0.173447
vt 0.420250 0.159072
vt 0.420259 0.166379
vt 0.397023 0.173475
vt 0.397030 0.179027
vt 0.389164 0.179037
vt 0.389157 0.173485
vt 0.397006 0.159101
vt 0.397016 0.167242
vt 0.389152 0.169410
vt 0.381429 0.216784
vt 0.374796 0.216792
vt 0.377018 0.199783
vt 0.382670 0.197713
vt 0.383243 0.190976
vt 0.377991 0.192288
vt 0.389140 0.159110
vt 0.428590 0.267084
vt 0.435304 0.267076
vt 0.435312 0.274382
vt 0.428599 0.274391
vt 0.428552 0.235703
vt 0.435265 0.235695
vt 0.435274 0.242793
vt 0.428560 0.242802
vt 0.445230 0.235683
vt 0.447788 0.235680
vt 0.447796 0.242778
vt 0.445239 0.242781
vt 0.450274 0.235677
vt 0.450282 0.242775
vt 0.440967 0.235688
vt 0.440976 0.242786
vt 0.445277 0.274370
vt 0.445268 0.267063
vt 0.447826 0.267060
vt 0.447835 0.274367
vt 0.447810 0.254441
vt 0.447817 0.259993
vt 0.445260 0.259996
vt 0.445253 0.254444
vt 0.450297 0.254438
vt 0.450308 0.263818
vt 0.428575 0.254464
vt 0.435288 0.254456
vt 0.435295 0.260008
vt 0.428581 0.260016
vt 0.440997 0.260001
vt 0.440990 0.254449
vt 0.441014 0.274375
vt 0.441005 0.267069
vt 0.404155 0.235733
vt 0.412954 0.235722
vt 0.412963 0.242821
vt 0.404164 0.242831
vt 0.420257 0.235713
vt 0.420265 0.242812
vt 0.397012 0.235742
vt 0.389146 0.235751
vt 0.397020 0.242840
vt 0.389154 0.242850
vt 0.404202 0.274420
vt 0.404193 0.267114
vt 0.412993 0.267103
vt 0.413001 0.274410
vt 0.404178 0.254494
vt 0.412977 0.254483
vt 0.412984 0.260035
vt 0.404185 0.260046
vt 0.420286 0.260026
vt 0.420280 0.254474
vt 0.420304 0.274401
vt 0.420295 0.267094
vt 0.397041 0.260055
vt 0.397034 0.254502
vt 0.389169 0.254512
vt 0.389175 0.260064
vt 0.397059 0.274429
vt 0.397049 0.266288
vt 0.389180 0.264139
vt 0.382630 0.235852
vt 0.376972 0.233796
vt 0.383218 0.242587
vt 0.377964 0.241288
vt 0.389193 0.274439
vn 0.121523 -0.992583 0.003427
vn 0.000209 -1.000000 -0.000176
vn 0.000109 -0.999998 0.002128
vn 0.111682 -0.993657 0.013185
vn 0.174865 0.984419 0.018459
vn 0.655195 0.749685 0.093226
vn 0.634894 0.772367 0.018929
vn 0.162803 0.985054 -0.056255
vn 0.225788 0.795489 -0.562332
vn 0.613158 0.644603 -0.456645
vn 0.666111 0.339218 -0.664250
vn 0.262524 0.492630 -0.829697
vn -0.000776 0.510899 -0.859641
vn -0.004800 0.814479 -0.580173
vn 0.263198 0.378691 -0.887311
vn 0.001731 0.396424 -0.918066
vn 0.697419 0.199716 -0.688273
vn 0.000372 0.997672 -0.068187
vn -0.000002 0.999996 0.002782
vn -0.002724 0.974538 -0.224205
vn 0.165787 0.961722 -0.218189
vn 0.594543 0.790270 -0.148298
vn -0.000504 -0.999206 0.039846
vn -0.000578 -0.999333 0.036521
vn 0.067398 -0.993243 0.094472
vn 0.085221 -0.992906 0.082915
vn 0.993786 -0.084779 0.072126
vn 0.985781 -0.167361 -0.015019
vn 0.389105 -0.892893 0.226583
vn 0.596506 -0.622520 0.506606
vn 0.991299 -0.010792 0.131189
vn 0.764603 -0.025400 0.644001
vn 0.959566 -0.243592 0.141052
vn 0.385024 -0.921835 0.044469
vn 0.354918 -0.933357 0.053640
vn 0.960900 -0.255290 0.107227
vn 0.355457 -0.930812 0.085085
vn 0.977199 -0.210843 0.025051
vn -0.000217 -0.999614 0.027767
vn 0.104376 -0.993349 0.048606
vn 0.176876 0.968288 0.176445
vn 0.637909 0.713666 0.289403
vn 0.642861 0.737933 0.205389
vn 0.167939 0.979797 0.108604
vn -0.000885 0.996946 0.078091
vn -0.000841 0.989438 0.144954
vn -0.000519 0.999389 0.034935
vn 0.173894 0.983119 0.056911
vn 0.655711 0.742234 0.138322
vn -0.000613 0.950212 0.311604
vn 0.231659 0.905337 0.355949
vn -0.000276 0.644343 0.764737
vn 0.311993 0.569522 0.760464
vn 0.640852 0.606330 0.470822
vn 0.571952 0.336731 0.747986
vn -0.000800 -0.999909 0.013477
vn -0.000484 -0.999677 0.025415
vn 0.110768 -0.993669 0.018783
vn 0.102716 -0.994633 0.012460
vn 0.940736 -0.166471 0.295473
vn 0.470314 -0.875943 0.107372
vn 0.445268 -0.892155 0.076132
vn 0.956607 -0.188354 0.222321
vn 0.961713 -0.212598 0.172945
vn 0.420955 -0.905016 0.061187
vn 0.000049 -0.999673 0.025554
vn 0.121425 -0.992376 0.021117
vn 0.503596 -0.832753 0.230029
vn 0.880104 -0.130831 0.456400
vn 0.710733 -0.083038 0.698544
vn 0.515058 -0.577629 0.633293
vn 0.001823 -0.997072 0.076450
vn 0.114247 -0.990790 0.072689
vn 0.226483 -0.789126 0.570951
vn 0.002051 -0.068071 0.997678
vn 0.004734 -0.802363 0.596818
vn 0.306022 -0.085865 0.948144
vn 0.484129 -0.079134 0.871411
vn -0.121867 -0.992541 0.003444
vn -0.112091 -0.993615 0.012819
vn -0.173371 0.984674 0.018949
vn -0.162182 0.985182 -0.055793
vn -0.634626 0.772584 0.019069
vn -0.653994 0.750718 0.093344
vn -0.208527 0.791714 -0.574200
vn -0.248145 0.496495 -0.831815
vn -0.654815 0.344732 -0.672590
vn -0.595936 0.651896 -0.468925
vn -0.253516 0.385831 -0.887054
vn -0.691740 0.203776 -0.692800
vn -0.158834 0.960571 -0.228199
vn -0.586924 0.794782 -0.154409
vn -0.089548 -0.992382 0.084607
vn -0.074614 -0.991509 0.106503
vn -0.992911 -0.068797 0.096931
vn -0.591487 -0.595938 0.543141
vn -0.387968 -0.887801 0.247567
vn -0.987894 -0.154910 0.008321
vn -0.991411 -0.010375 0.130370
vn -0.765682 -0.022894 0.642812
vn -0.959725 -0.243015 0.140968
vn -0.961037 -0.254878 0.106986
vn -0.355739 -0.933058 0.053412
vn -0.386024 -0.921415 0.044492
vn -0.352844 -0.932494 0.077180
vn -0.976435 -0.214813 0.020753
vn -0.105293 -0.993469 0.043953
vn -0.170617 0.969910 0.173679
vn -0.163664 0.980637 0.107541
vn -0.638349 0.742239 0.203942
vn -0.631852 0.721467 0.283281
vn -0.170885 0.983626 0.057261
vn -0.652869 0.744783 0.138063
vn -0.222802 0.908601 0.353276
vn -0.302460 0.576803 0.758826
vn -0.628076 0.619951 0.470299
vn -0.551143 0.360355 0.752586
vn -0.105148 -0.994369 0.013195
vn -0.112093 -0.993475 0.021038
vn -0.943386 -0.163131 0.288809
vn -0.956820 -0.185562 0.223745
vn -0.447203 -0.890852 0.079955
vn -0.472532 -0.874987 0.105410
vn -0.422220 -0.904366 0.062070
vn -0.961954 -0.211256 0.173248
vn -0.121824 -0.992319 0.021516
vn -0.503126 -0.836727 0.216222
vn -0.882122 -0.126428 0.453736
vn -0.699865 -0.066641 0.711160
vn -0.504962 -0.579214 0.639941
vn -0.111431 -0.991805 0.062499
vn -0.213998 -0.790323 0.574104
vn -0.292291 -0.072142 0.953604
vn -0.463515 -0.056104 0.884311
s 1
g Msh:Tongue Msh:headMesh MshRef Skl:SkinnedMesh Skl:Mesh Skl:CharacterRoot SklRef
usemtl Msh:blinn1SG
f 35/1/1 4/2/2 37/3/3 36/4/4
f 16/5/5 5/6/6 18/7/7 17/8/8
f 9/9/9 7/10/10 11/11/11 10/12/12
f 8/13/13 6/14/14 9/9/9 10/12/12
f 130/15/15 131/16/16 8/13/13 10/12/12
f 11/11/11 132/17/17 130/15/15 10/12/12
f 13/18/18 3/19/19 16/5/5 17/8/8
f 9/9/9 6/14/14 12/20/20 15/21/21
f 12/20/20 13/18/18 17/8/8 15/21/21
f 14/22/22 7/10/10 9/9/9 15/21/21
f 18/7/7 14/22/22 15/21/21 17/8/8
f 19/23/23 26/24/24 25/25/25 24/26/26
f 22/27/27 21/28/28 20/29/29 23/30/30
f 11/11/11 7/10/10 21/28/28 22/27/27
f 128/31/31 132/17/17 11/11/11 22/27/27
f 1/32/32 128/31/31 22/27/27 23/30/30
f 23/30/30 20/29/29 24/26/26 25/25/25
f 30/33/33 27/34/34 32/35/35 31/36/36
f 28/37/37 20/29/29 21/28/28 29/38/38
f 21/28/28 7/10/10 14/22/22 29/38/38
f 5/6/6 30/33/33 31/36/36 18/7/7
f 31/36/36 29/38/38 14/22/22 18/7/7
f 32/35/35 28/37/37 29/38/38 31/36/36
f 33/39/39 19/23/23 24/26/26 34/40/40
f 24/26/26 20/29/29 28/37/37 34/40/40
f 27/34/34 35/1/1 36/4/4 32/35/35
f 36/4/4 34/40/40 28/37/37 32/35/35
f 37/3/3 33/39/39 34/40/40 36/4/4
f 44/41/41 39/42/42 46/43/43 45/44/44
f 41/45/45 38/46/46 44/41/41 45/44/44
f 16/5/5 3/19/19 40/47/47 43/48/48
f 40/47/47 41/45/45 45/44/44 43/48/48
f 42/49/49 5/6/6 16/5/5 43/48/48
f 46/43/43 42/49/49 43/48/48 45/44/44
f 44/41/41 38/46/46 47/50/50 50/51/51
f 47/50/50 48/52/52 51/53/53 50/51/51
f 49/54/54 39/42/42 44/41/41 50/51/51
f 52/55/55 49/54/54 50/51/51 51/53/53
f 53/56/56 64/57/57 63/58/58 62/59/59
f 57/60/60 54/61/61 59/62/62 58/63/63
f 27/34/34 30/33/33 56/64/64 55/65/65
f 30/33/33 5/6/6 42/49/49 56/64/64
f 46/43/43 39/42/42 57/60/60 58/63/63
f 42/49/49 46/43/43 58/63/63 56/64/64
f 59/62/62 55/65/65 56/64/64 58/63/63
f 60/66/66 4/2/2 35/1/1 61/67/67
f 35/1/1 27/34/34 55/65/65 61/67/67
f 59/62/62 54/61/61 62/59/59 63/58/58
f 61/67/67 55/65/65 59/62/62 63/58/58
f 64/57/57 60/66/66 61/67/67 63/58/58
f 65/68/68 54/61/61 57/60/60 66/69/69
f 57/60/60 39/42/42 49/54/54 66/69/69
f 67/70/70 66/69/69 49/54/54 52/55/55
f 68/71/71 65/68/68 66/69/69 67/70/70
f 69/72/72 53/56/56 62/59/59 75/73/73
f 62/59/59 54/61/61 65/68/68 75/73/73
f 74/74/74 75/73/73 65/68/68 68/71/71
f 72/75/75 70/76/76 74/77/74 73/78/77
f 71/79/78 73/78/77 74/77/74 68/80/71
f 68/80/71 67/70/70 71/79/78
f 71/79/78 67/70/70 52/55/55
f 51/53/53 73/78/77 71/79/78 52/55/55
f 51/53/53 48/52/52 72/75/75 73/78/77
f 69/72/72 75/73/73 74/74/74 70/81/76
f 99/82/79 100/83/80 37/84/3 4/85/2
f 83/86/81 84/87/82 85/88/83 76/89/84
f 78/90/85 79/91/86 80/92/87 77/93/88
f 8/13/13 79/91/86 78/90/85 6/14/14
f 133/94/89 79/91/86 8/13/13 131/16/16
f 80/92/87 79/91/86 133/94/89 134/95/90
f 13/18/18 84/87/82 83/86/81 3/19/19
f 78/90/85 82/96/91 12/20/20 6/14/14
f 12/20/20 82/96/91 84/87/82 13/18/18
f 81/97/92 82/96/91 78/90/85 77/93/88
f 85/88/83 84/87/82 82/96/91 81/97/92
f 19/98/23 90/99/93 91/100/94 26/101/24
f 88/102/95 89/103/96 86/104/97 87/105/98
f 80/92/87 88/102/95 87/105/98 77/93/88
f 129/106/99 88/102/95 80/92/87 134/95/90
f 2/107/100 89/103/96 88/102/95 129/106/99
f 89/103/96 91/100/94 90/99/93 86/104/97
f 95/108/101 96/109/102 97/110/103 92/111/104
f 93/112/105 94/113/106 87/105/98 86/104/97
f 87/105/98 94/113/106 81/97/92 77/93/88
f 76/89/84 85/88/83 96/109/102 95/108/101
f 96/109/102 85/88/83 81/97/92 94/113/106
f 97/110/103 96/109/102 94/113/106 93/112/105
f 33/114/39 98/115/107 90/99/93 19/98/23
f 90/99/93 98/115/107 93/112/105 86/104/97
f 92/111/104 97/110/103 100/83/80 99/82/79
f 100/83/80 97/110/103 93/112/105 98/115/107
f 37/84/3 100/83/80 98/115/107 33/114/39
f 104/116/108 105/117/109 106/118/110 101/119/111
f 41/45/45 105/117/109 104/116/108 38/46/46
f 83/86/81 103/120/112 40/47/47 3/19/19
f 40/47/47 103/120/112 105/117/109 41/45/45
f 102/121/113 103/120/112 83/86/81 76/89/84
f 106/118/110 105/117/109 103/120/112 102/121/113
f 104/116/108 108/122/114 47/50/50 38/46/46
f 47/50/50 108/122/114 109/123/115 48/52/52
f 107/124/116 108/122/114 104/116/108 101/119/111
f 110/125/117 109/123/115 108/122/114 107/124/116
f 53/126/56 118/127/118 119/128/119 64/129/57
f 114/130/120 115/131/121 116/132/122 111/133/123
f 92/111/104 112/134/124 113/135/125 95/108/101
f 95/108/101 113/135/125 102/121/113 76/89/84
f 106/118/110 115/131/121 114/130/120 101/119/111
f 102/121/113 113/135/125 115/131/121 106/118/110
f 116/132/122 115/131/121 113/135/125 112/134/124
f 60/136/66 117/137/126 99/82/79 4/85/2
f 99/82/79 117/137/126 112/134/124 92/111/104
f 116/132/122 119/128/119 118/127/118 111/133/123
f 117/137/126 119/128/119 116/132/122 112/134/124
f 64/129/57 119/128/119 117/137/126 60/136/66
f 120/138/127 121/139/128 114/130/120 111/133/123
f 114/130/120 121/139/128 107/124/116 101/119/111
f 122/140/129 110/125/117 107/124/116 121/139/128
f 123/141/130 122/140/129 121/139/128 120/138/127
f 69/142/72 127/143/131 118/127/118 53/126/56
f 118/127/118 127/143/131 120/138/127 111/133/123
f 126/144/132 123/141/130 120/138/127 127/143/131
f 72/75/75 125/145/133 126/146/132 70/76/76
f 124/147/134 123/148/130 126/146/132 125/145/133
f 123/148/130 124/147/134 122/140/129
f 124/147/134 110/125/117 122/140/129
f 109/123/115 110/125/117 124/147/134 125/145/133
f 109/123/115 125/145/133 72/75/75 48/52/52
f 69/142/72 70/149/76 126/144/132 127/143/131
